<mxfile host="app.diagrams.net" modified="2024-05-22T08:57:13.524Z" agent="Mozilla/5.0 (X11; Linux x86_64; rv:126.0) Gecko/20100101 Firefox/126.0" etag="fRplHarok6VjJIlOh--s" version="24.4.4" type="github">
  <diagram name="Page-1" id="sbFPpcLHUXz4X0utrcQx">
    <mxGraphModel dx="1230" dy="673" grid="1" gridSize="10" guides="1" tooltips="1" connect="1" arrows="1" fold="1" page="1" pageScale="1" pageWidth="850" pageHeight="1100" math="0" shadow="0">
      <root>
        <mxCell id="0" />
        <mxCell id="1" parent="0" />
        <mxCell id="F5mE64wRtsuPYbCrd9tL-27" value="Abbonamento" style="swimlane;fontStyle=1;align=center;verticalAlign=top;childLayout=stackLayout;horizontal=1;startSize=26;horizontalStack=0;resizeParent=1;resizeParentMax=0;resizeLast=0;collapsible=1;marginBottom=0;whiteSpace=wrap;html=1;" vertex="1" parent="1">
          <mxGeometry x="340" y="50" width="270" height="148" as="geometry" />
        </mxCell>
        <mxCell id="F5mE64wRtsuPYbCrd9tL-28" value="&lt;div&gt;- nome: String&lt;/div&gt;&lt;div&gt;- descrizione: String&lt;/div&gt;&lt;div&gt;- durata: DurataAbbonamento&lt;br&gt;&lt;/div&gt;&lt;div&gt;- costo: Float&lt;br&gt;&lt;/div&gt;" style="text;strokeColor=none;fillColor=none;align=left;verticalAlign=top;spacingLeft=4;spacingRight=4;overflow=hidden;rotatable=0;points=[[0,0.5],[1,0.5]];portConstraint=eastwest;whiteSpace=wrap;html=1;" vertex="1" parent="F5mE64wRtsuPYbCrd9tL-27">
          <mxGeometry y="26" width="270" height="114" as="geometry" />
        </mxCell>
        <mxCell id="F5mE64wRtsuPYbCrd9tL-29" value="" style="line;strokeWidth=1;fillColor=none;align=left;verticalAlign=middle;spacingTop=-1;spacingLeft=3;spacingRight=3;rotatable=0;labelPosition=right;points=[];portConstraint=eastwest;strokeColor=inherit;" vertex="1" parent="F5mE64wRtsuPYbCrd9tL-27">
          <mxGeometry y="140" width="270" height="8" as="geometry" />
        </mxCell>
        <mxCell id="F5mE64wRtsuPYbCrd9tL-31" value="«enumeration»&lt;br&gt;&lt;b&gt;DurataAbboanamento&lt;/b&gt;" style="html=1;whiteSpace=wrap;" vertex="1" parent="1">
          <mxGeometry x="80" y="60" width="170" height="50" as="geometry" />
        </mxCell>
        <mxCell id="F5mE64wRtsuPYbCrd9tL-32" value="&lt;div align=&quot;left&quot;&gt;settimanale&lt;/div&gt;&lt;div align=&quot;left&quot;&gt;mensile&lt;/div&gt;&lt;div align=&quot;left&quot;&gt;bimestrale&lt;/div&gt;&lt;div align=&quot;left&quot;&gt;trimestrale&lt;/div&gt;&lt;div align=&quot;left&quot;&gt;semestrale&lt;br&gt;&lt;/div&gt;&lt;div align=&quot;left&quot;&gt;annuale&lt;br&gt;&lt;/div&gt;" style="html=1;whiteSpace=wrap;align=left;" vertex="1" parent="1">
          <mxGeometry x="80" y="110" width="170" height="114" as="geometry" />
        </mxCell>
        <mxCell id="F5mE64wRtsuPYbCrd9tL-33" value="" style="endArrow=none;html=1;rounded=0;entryX=-0.011;entryY=0.646;entryDx=0;entryDy=0;entryPerimeter=0;exitX=1.01;exitY=0.34;exitDx=0;exitDy=0;exitPerimeter=0;" edge="1" parent="1" source="F5mE64wRtsuPYbCrd9tL-32" target="F5mE64wRtsuPYbCrd9tL-28">
          <mxGeometry width="50" height="50" relative="1" as="geometry">
            <mxPoint x="240" y="140" as="sourcePoint" />
            <mxPoint x="380" y="202" as="targetPoint" />
          </mxGeometry>
        </mxCell>
        <mxCell id="F5mE64wRtsuPYbCrd9tL-34" value="Palestra" style="swimlane;fontStyle=1;align=center;verticalAlign=top;childLayout=stackLayout;horizontal=1;startSize=26;horizontalStack=0;resizeParent=1;resizeParentMax=0;resizeLast=0;collapsible=1;marginBottom=0;whiteSpace=wrap;html=1;" vertex="1" parent="1">
          <mxGeometry x="860" y="50" width="280" height="148" as="geometry" />
        </mxCell>
        <mxCell id="F5mE64wRtsuPYbCrd9tL-35" value="&lt;div&gt;- nome: String&lt;/div&gt;&lt;div&gt;- indirizzo: String&lt;/div&gt;" style="text;strokeColor=none;fillColor=none;align=left;verticalAlign=top;spacingLeft=4;spacingRight=4;overflow=hidden;rotatable=0;points=[[0,0.5],[1,0.5]];portConstraint=eastwest;whiteSpace=wrap;html=1;" vertex="1" parent="F5mE64wRtsuPYbCrd9tL-34">
          <mxGeometry y="26" width="280" height="114" as="geometry" />
        </mxCell>
        <mxCell id="F5mE64wRtsuPYbCrd9tL-36" value="" style="line;strokeWidth=1;fillColor=none;align=left;verticalAlign=middle;spacingTop=-1;spacingLeft=3;spacingRight=3;rotatable=0;labelPosition=right;points=[];portConstraint=eastwest;strokeColor=inherit;" vertex="1" parent="F5mE64wRtsuPYbCrd9tL-34">
          <mxGeometry y="140" width="280" height="8" as="geometry" />
        </mxCell>
        <mxCell id="F5mE64wRtsuPYbCrd9tL-38" value="PersonalTrainer" style="swimlane;fontStyle=1;align=center;verticalAlign=top;childLayout=stackLayout;horizontal=1;startSize=26;horizontalStack=0;resizeParent=1;resizeParentMax=0;resizeLast=0;collapsible=1;marginBottom=0;whiteSpace=wrap;html=1;" vertex="1" parent="1">
          <mxGeometry x="920" y="360" width="160" height="148" as="geometry" />
        </mxCell>
        <mxCell id="F5mE64wRtsuPYbCrd9tL-39" value="&lt;div&gt;- nome: String&lt;/div&gt;&lt;div&gt;- cognome: String&lt;/div&gt;&lt;div&gt;- descrizione: String&lt;/div&gt;&lt;div&gt;- foto: File&lt;br&gt;&lt;/div&gt;" style="text;strokeColor=none;fillColor=none;align=left;verticalAlign=top;spacingLeft=4;spacingRight=4;overflow=hidden;rotatable=0;points=[[0,0.5],[1,0.5]];portConstraint=eastwest;whiteSpace=wrap;html=1;" vertex="1" parent="F5mE64wRtsuPYbCrd9tL-38">
          <mxGeometry y="26" width="160" height="114" as="geometry" />
        </mxCell>
        <mxCell id="F5mE64wRtsuPYbCrd9tL-40" value="" style="line;strokeWidth=1;fillColor=none;align=left;verticalAlign=middle;spacingTop=-1;spacingLeft=3;spacingRight=3;rotatable=0;labelPosition=right;points=[];portConstraint=eastwest;strokeColor=inherit;" vertex="1" parent="F5mE64wRtsuPYbCrd9tL-38">
          <mxGeometry y="140" width="160" height="8" as="geometry" />
        </mxCell>
        <mxCell id="F5mE64wRtsuPYbCrd9tL-42" value="" style="endArrow=none;html=1;edgeStyle=orthogonalEdgeStyle;rounded=0;exitX=0.5;exitY=1;exitDx=0;exitDy=0;entryX=0.504;entryY=-0.022;entryDx=0;entryDy=0;entryPerimeter=0;" edge="1" parent="1" source="F5mE64wRtsuPYbCrd9tL-34" target="F5mE64wRtsuPYbCrd9tL-38">
          <mxGeometry relative="1" as="geometry">
            <mxPoint x="1010" y="230" as="sourcePoint" />
            <mxPoint x="1170" y="230" as="targetPoint" />
          </mxGeometry>
        </mxCell>
        <mxCell id="F5mE64wRtsuPYbCrd9tL-43" value="*" style="edgeLabel;resizable=0;html=1;align=left;verticalAlign=bottom;" connectable="0" vertex="1" parent="F5mE64wRtsuPYbCrd9tL-42">
          <mxGeometry x="-1" relative="1" as="geometry">
            <mxPoint y="26" as="offset" />
          </mxGeometry>
        </mxCell>
        <mxCell id="F5mE64wRtsuPYbCrd9tL-44" value="*" style="edgeLabel;resizable=0;html=1;align=right;verticalAlign=bottom;" connectable="0" vertex="1" parent="F5mE64wRtsuPYbCrd9tL-42">
          <mxGeometry x="1" relative="1" as="geometry">
            <mxPoint x="9" as="offset" />
          </mxGeometry>
        </mxCell>
        <mxCell id="F5mE64wRtsuPYbCrd9tL-45" value="AbbonamentoUtente" style="swimlane;fontStyle=1;align=center;verticalAlign=top;childLayout=stackLayout;horizontal=1;startSize=26;horizontalStack=0;resizeParent=1;resizeParentMax=0;resizeLast=0;collapsible=1;marginBottom=0;whiteSpace=wrap;html=1;" vertex="1" parent="1">
          <mxGeometry x="390" y="330" width="160" height="98" as="geometry" />
        </mxCell>
        <mxCell id="F5mE64wRtsuPYbCrd9tL-46" value="&lt;div&gt;- dataInizio: DateTime&lt;/div&gt;&lt;div&gt;- dataFine: DateTime&lt;/div&gt;" style="text;strokeColor=none;fillColor=none;align=left;verticalAlign=top;spacingLeft=4;spacingRight=4;overflow=hidden;rotatable=0;points=[[0,0.5],[1,0.5]];portConstraint=eastwest;whiteSpace=wrap;html=1;" vertex="1" parent="F5mE64wRtsuPYbCrd9tL-45">
          <mxGeometry y="26" width="160" height="64" as="geometry" />
        </mxCell>
        <mxCell id="F5mE64wRtsuPYbCrd9tL-47" value="" style="line;strokeWidth=1;fillColor=none;align=left;verticalAlign=middle;spacingTop=-1;spacingLeft=3;spacingRight=3;rotatable=0;labelPosition=right;points=[];portConstraint=eastwest;strokeColor=inherit;" vertex="1" parent="F5mE64wRtsuPYbCrd9tL-45">
          <mxGeometry y="90" width="160" height="8" as="geometry" />
        </mxCell>
        <mxCell id="F5mE64wRtsuPYbCrd9tL-49" value="" style="endArrow=block;endSize=16;endFill=0;html=1;rounded=0;exitX=0.467;exitY=-0.017;exitDx=0;exitDy=0;exitPerimeter=0;entryX=0.465;entryY=0.821;entryDx=0;entryDy=0;entryPerimeter=0;" edge="1" parent="1" source="F5mE64wRtsuPYbCrd9tL-45" target="F5mE64wRtsuPYbCrd9tL-29">
          <mxGeometry width="160" relative="1" as="geometry">
            <mxPoint x="410" y="260" as="sourcePoint" />
            <mxPoint x="465" y="210" as="targetPoint" />
          </mxGeometry>
        </mxCell>
        <mxCell id="F5mE64wRtsuPYbCrd9tL-50" value="" style="endArrow=none;html=1;edgeStyle=orthogonalEdgeStyle;rounded=0;exitX=1;exitY=0.561;exitDx=0;exitDy=0;exitPerimeter=0;entryX=-0.011;entryY=0.562;entryDx=0;entryDy=0;entryPerimeter=0;" edge="1" parent="1" source="F5mE64wRtsuPYbCrd9tL-28" target="F5mE64wRtsuPYbCrd9tL-35">
          <mxGeometry relative="1" as="geometry">
            <mxPoint x="660" y="140" as="sourcePoint" />
            <mxPoint x="820" y="140" as="targetPoint" />
          </mxGeometry>
        </mxCell>
        <mxCell id="F5mE64wRtsuPYbCrd9tL-51" value="1" style="edgeLabel;resizable=0;html=1;align=left;verticalAlign=bottom;" connectable="0" vertex="1" parent="F5mE64wRtsuPYbCrd9tL-50">
          <mxGeometry x="-1" relative="1" as="geometry" />
        </mxCell>
        <mxCell id="F5mE64wRtsuPYbCrd9tL-52" value="*" style="edgeLabel;resizable=0;html=1;align=right;verticalAlign=bottom;" connectable="0" vertex="1" parent="F5mE64wRtsuPYbCrd9tL-50">
          <mxGeometry x="1" relative="1" as="geometry" />
        </mxCell>
      </root>
    </mxGraphModel>
  </diagram>
</mxfile>
